<?xml version="1.0" standalone="no"?>
<!DOCTYPE svg PUBLIC "-//W3C//DTD SVG 20010904//EN"
 "http://www.w3.org/TR/2001/REC-SVG-20010904/DTD/svg10.dtd">
<svg version="1.0" xmlns="http://www.w3.org/2000/svg"
 width="1024.000000pt" height="1024.000000pt" viewBox="0 0 1024.000000 1024.000000"
 preserveAspectRatio="xMidYMid meet">
<metadata>
Created by potrace 1.14, written by Peter Selinger 2001-2017
</metadata>
<g transform="translate(0.000000,1024.000000) scale(0.100000,-0.100000)"
fill="#000000" stroke="none">
<path d="M4992 7089 c2 -6 -3 -14 -11 -17 -8 -2 -11 0 -8 5 3 5 0 10 -8 10 -8
0 -12 -4 -9 -9 3 -4 -24 -8 -60 -8 -36 0 -68 -4 -71 -10 -3 -5 -23 -10 -44
-10 -20 0 -43 -6 -50 -12 -11 -10 -13 -10 -7 0 4 6 3 12 -3 12 -5 0 -11 -5
-13 -12 -5 -15 -38 -19 -38 -5 0 8 -3 8 -8 2 -4 -6 -20 -16 -36 -23 -26 -12
-28 -12 -16 3 11 13 10 15 -4 9 -9 -3 -16 -10 -16 -15 0 -5 -11 -9 -23 -9 -13
0 -38 -7 -56 -16 -18 -9 -41 -14 -52 -11 -17 5 -18 3 -8 -9 7 -8 8 -14 3 -13
-26 5 -64 -2 -59 -11 5 -9 -15 -14 -52 -13 -7 0 -11 -4 -10 -11 1 -6 -8 -10
-21 -10 -17 1 -22 -3 -17 -14 3 -9 3 -13 -1 -9 -4 4 -17 1 -28 -6 -12 -8 -34
-17 -49 -21 -18 -4 -25 -11 -20 -19 4 -7 -2 -5 -12 3 -11 9 -16 10 -11 3 4 -8
1 -13 -9 -13 -9 0 -14 -4 -11 -8 2 -4 -4 -9 -16 -9 -11 -1 -28 -12 -38 -23
-11 -12 -23 -19 -29 -16 -5 4 -17 -4 -25 -16 -9 -12 -16 -18 -16 -13 -1 6 -9
0 -20 -13 -11 -13 -24 -21 -30 -17 -6 4 -9 1 -8 -7 2 -7 -3 -12 -9 -11 -7 2
-13 -4 -13 -12 0 -8 -5 -14 -12 -12 -7 1 -12 -5 -13 -13 0 -9 -8 -14 -18 -12
-9 2 -20 -4 -23 -13 -3 -8 -13 -15 -21 -15 -8 0 -11 -4 -8 -10 3 -5 -3 -10
-14 -10 -15 0 -19 -4 -14 -17 4 -11 3 -14 -5 -9 -7 4 -12 1 -12 -9 0 -9 -4
-14 -9 -11 -5 3 -11 -1 -15 -9 -3 -8 -13 -15 -22 -15 -10 0 -14 -3 -11 -7 9
-8 -13 -34 -23 -28 -5 3 -12 0 -16 -6 -5 -8 -3 -9 7 -4 12 8 12 6 0 -8 -7 -9
-17 -14 -22 -11 -5 3 -9 -2 -9 -11 0 -8 -7 -18 -15 -21 -8 -4 -12 -10 -9 -15
3 -5 -2 -9 -10 -9 -9 0 -16 -7 -16 -15 0 -8 -7 -15 -15 -15 -9 0 -12 -6 -9
-15 4 -8 -1 -17 -10 -21 -9 -3 -16 -10 -16 -15 0 -4 -12 -20 -26 -34 -15 -15
-23 -32 -20 -41 3 -9 1 -12 -4 -9 -6 3 -13 -1 -16 -9 -3 -9 -10 -13 -15 -10
-5 3 -9 -4 -9 -15 0 -12 -7 -21 -16 -21 -8 0 -13 -4 -9 -9 3 -5 -2 -16 -11
-25 -8 -9 -12 -20 -9 -26 3 -5 -1 -10 -9 -10 -8 0 -16 -10 -18 -22 -2 -13 -8
-22 -14 -21 -6 1 -11 -4 -11 -12 0 -8 4 -12 9 -9 5 4 4 -3 -3 -14 -7 -12 -17
-18 -21 -16 -5 3 -8 2 -7 -3 4 -22 -2 -34 -13 -27 -8 5 -7 0 2 -11 8 -10 11
-16 5 -13 -5 3 -16 0 -23 -8 -7 -8 -9 -14 -4 -14 5 0 9 -7 9 -14 0 -8 -5 -14
-11 -13 -9 2 -11 -2 -15 -34 0 -5 -7 -7 -13 -3 -8 5 -7 0 2 -11 9 -11 10 -16
3 -11 -9 5 -13 -2 -13 -26 0 -25 -3 -29 -10 -18 -8 12 -10 10 -11 -10 -1 -14
-1 -34 0 -45 2 -17 0 -17 -8 -5 -9 12 -11 11 -11 -7 0 -29 -10 -54 -20 -48 -4
2 -7 -3 -7 -13 0 -55 -4 -83 -11 -78 -5 3 -9 -1 -9 -9 0 -8 4 -12 9 -9 4 3 5
-2 2 -10 -3 -9 -9 -14 -14 -11 -4 2 -5 -12 -3 -31 3 -27 0 -34 -9 -28 -7 4
-10 4 -6 -1 4 -4 2 -15 -5 -23 -9 -13 -9 -14 1 -8 6 4 12 2 12 -3 0 -6 -6 -11
-12 -11 -9 0 -8 -4 2 -10 11 -7 12 -10 2 -10 -10 0 -13 -16 -10 -64 2 -41 -1
-62 -7 -60 -6 3 -11 -5 -12 -16 -1 -13 2 -18 10 -13 9 5 9 3 0 -8 -16 -20 -17
-363 -1 -353 6 4 6 -2 -1 -14 -14 -26 -14 -42 -1 -22 8 11 10 3 10 -30 -1 -68
4 -108 14 -117 5 -5 6 -2 1 7 -5 8 -4 12 0 7 5 -4 10 -31 11 -60 3 -70 3 -69
14 -62 6 3 10 1 10 -4 0 -6 -6 -11 -12 -11 -10 0 -10 -2 -1 -8 7 -4 13 -26 14
-49 2 -23 7 -41 12 -40 5 1 12 -11 14 -28 2 -16 8 -31 14 -33 5 -2 9 -15 9
-28 0 -14 4 -22 10 -19 6 3 10 2 10 -4 0 -5 -6 -12 -12 -14 -9 -4 -7 -6 3 -6
12 -1 15 -8 11 -26 -3 -18 0 -25 11 -25 10 0 14 -8 12 -26 -1 -17 2 -24 10
-20 8 3 12 -2 10 -12 -1 -9 4 -24 12 -34 8 -9 16 -25 18 -35 1 -10 8 -17 14
-15 6 1 10 -1 10 -5 -4 -22 3 -41 21 -61 11 -12 20 -28 20 -37 0 -8 6 -15 14
-15 9 0 13 -9 12 -24 -2 -17 1 -23 10 -19 9 3 14 -2 14 -15 0 -11 7 -22 15
-26 8 -3 15 -13 15 -21 0 -9 5 -13 10 -10 6 3 10 -3 10 -15 0 -12 5 -18 10
-15 6 3 10 -3 10 -15 0 -12 5 -18 10 -15 9 6 14 -8 11 -28 -1 -5 3 -5 9 -2 7
4 14 -2 17 -13 3 -14 10 -19 21 -14 15 5 15 4 3 -11 -12 -15 -11 -17 3 -17 9
0 16 -4 16 -10 0 -5 7 -10 15 -10 8 0 15 -9 15 -21 0 -11 5 -17 10 -14 6 3 10
1 10 -4 0 -6 8 -11 18 -12 14 0 14 -2 -3 -9 -17 -7 -17 -9 -2 -9 9 -1 17 -9
18 -18 0 -15 2 -15 9 2 7 17 9 17 9 3 1 -10 5 -18 10 -18 5 0 13 -10 16 -21 6
-17 9 -19 16 -8 6 10 9 8 9 -9 0 -13 4 -21 9 -17 5 3 12 1 16 -5 4 -6 11 -8
16 -5 5 3 6 -1 3 -9 -4 -12 0 -16 16 -16 11 0 19 -4 16 -8 -7 -11 30 -42 49
-42 14 0 20 -13 16 -34 -1 -5 5 -3 14 4 13 11 15 10 9 -4 -5 -12 -2 -15 10
-10 11 4 16 1 16 -10 0 -9 3 -15 8 -15 4 1 16 1 27 0 15 -1 17 -3 7 -10 -10
-6 -7 -10 12 -15 15 -4 25 -10 22 -14 -2 -4 5 -9 16 -9 11 -1 26 -10 34 -20 7
-10 14 -14 14 -10 0 5 7 1 16 -7 8 -9 20 -14 25 -11 5 4 9 -1 9 -11 0 -11 6
-15 20 -11 11 3 20 2 20 -2 0 -13 51 -32 63 -24 8 5 8 2 0 -8 -11 -13 -8 -15
21 -14 24 0 32 -3 29 -12 -3 -9 4 -13 22 -13 18 0 24 -4 19 -12 -5 -8 0 -7 11
2 11 9 16 10 11 3 -4 -8 -2 -13 5 -13 7 0 22 -8 33 -18 20 -16 20 -16 7 1 -12
15 -12 17 3 11 9 -3 16 -9 16 -13 0 -4 12 -8 26 -9 15 -1 32 -6 38 -11 6 -6
23 -11 36 -13 14 -2 36 -10 50 -18 14 -7 26 -13 28 -12 1 1 5 2 10 1 4 -1 17
0 30 1 12 1 22 -3 22 -7 0 -5 24 -10 53 -12 28 -1 54 -6 55 -12 2 -5 8 -9 13
-9 6 0 7 5 3 12 -4 6 2 5 14 -3 14 -10 38 -14 67 -12 26 2 44 0 41 -5 -3 -5 1
-9 9 -9 8 0 12 4 9 9 -3 4 -1 8 4 8 6 0 13 -8 17 -17 6 -17 7 -17 21 1 8 11
14 14 14 8 0 -7 7 -12 15 -12 8 0 15 6 15 13 0 9 3 8 9 -2 7 -11 15 -11 40 -3
18 7 29 7 26 2 -4 -6 1 -10 10 -10 9 0 14 4 11 8 -2 4 4 8 14 8 13 0 16 -4 9
-12 -7 -8 -2 -10 16 -6 14 2 23 8 20 11 -2 4 2 8 9 8 8 0 12 -6 9 -12 -3 -9 4
-11 21 -8 16 3 23 10 19 17 -3 6 4 2 17 -9 17 -15 22 -16 18 -5 -4 12 1 16 17
16 13 0 21 -4 19 -8 -8 -13 11 -9 25 5 11 10 13 10 7 0 -5 -8 -1 -13 9 -13 9
0 14 4 11 8 -2 4 4 8 14 8 13 0 16 -4 10 -11 -6 -8 0 -10 22 -9 17 1 35 8 39
16 7 10 9 10 9 1 0 -7 7 -13 16 -13 9 0 12 5 8 13 -4 6 3 3 16 -8 l23 -20 -6
20 c-7 20 -7 20 8 1 15 -20 15 -20 16 0 0 10 3 13 6 7 2 -7 9 -13 14 -13 6 0
8 4 5 8 -3 5 1 9 9 9 8 0 12 -4 9 -9 -3 -4 2 -8 11 -8 9 0 14 4 11 8 -2 4 4 8
14 8 13 0 16 -4 10 -11 -7 -8 -3 -11 13 -9 12 1 32 3 45 3 15 1 21 5 17 14 -4
6 0 4 9 -6 12 -15 18 -17 33 -7 17 11 17 11 0 6 -11 -3 -15 -2 -12 4 3 6 12
10 20 10 10 0 11 9 5 35 -4 19 -5 35 -1 35 8 0 6 53 -3 68 -4 7 -4 12 1 12 10
0 9 52 -1 68 -4 7 -4 12 1 12 4 0 8 14 8 30 0 17 -4 30 -9 30 -6 0 -5 5 1 11
6 6 7 25 3 50 -4 21 -5 39 -1 39 3 0 6 14 6 30 0 17 -4 30 -8 30 -5 0 -5 6 0
13 8 13 7 103 -2 118 -4 5 -2 9 3 9 5 0 6 17 3 38 -4 20 -4 56 0 80 5 37 4 42
-10 37 -14 -4 -14 -4 -1 7 12 10 15 38 15 126 0 95 -2 111 -15 107 -13 -4 -13
-4 0 7 12 10 15 38 15 126 0 61 -4 112 -9 112 -5 0 -3 7 4 15 7 8 9 15 4 15
-5 0 -2 5 6 10 13 8 13 10 -2 10 -9 0 -18 -3 -21 -7 -2 -5 -2 -2 -1 5 5 18
-26 28 -37 11 -6 -10 -9 -10 -9 -1 0 16 -27 16 -33 0 -4 -10 -6 -10 -6 0 -1
16 -28 16 -34 0 -4 -10 -6 -10 -6 0 -1 16 -28 16 -34 0 -4 -10 -6 -10 -6 0 -1
6 -7 12 -15 12 -8 0 -17 -6 -19 -12 -4 -10 -6 -10 -6 0 -1 6 -7 12 -15 12 -8
0 -17 -6 -19 -12 -4 -10 -6 -10 -6 0 -1 16 -28 16 -34 0 -4 -10 -6 -10 -6 0
-1 6 -7 12 -15 12 -8 0 -17 -6 -19 -12 -4 -10 -6 -10 -6 0 -1 6 -7 12 -15 12
-8 0 -17 -6 -19 -12 -4 -10 -6 -10 -6 0 -1 16 -28 16 -34 0 -4 -10 -6 -10 -6
0 -1 16 -28 16 -34 0 -4 -10 -6 -10 -6 0 -1 6 -7 12 -15 12 -8 0 -17 -6 -19
-12 -4 -10 -6 -10 -6 0 -1 16 -28 16 -34 0 -4 -10 -6 -10 -6 0 -1 16 -28 16
-34 0 -4 -10 -6 -10 -6 0 -1 6 -8 12 -16 12 -8 0 -15 -6 -15 -12 0 -9 -2 -10
-8 -2 -4 7 -42 12 -92 13 -46 1 -87 6 -90 12 -4 5 -23 10 -44 11 -24 1 -35 5
-32 13 3 8 -5 11 -20 9 -13 -1 -30 3 -37 9 -7 7 -19 13 -27 15 -8 2 -21 11
-28 20 -7 9 -16 17 -20 17 -4 0 -6 4 -4 9 2 5 -5 3 -14 -5 -12 -9 -15 -9 -10
-1 4 6 2 12 -3 12 -15 0 -51 32 -45 41 2 4 -6 5 -18 1 -21 -5 -22 -4 -9 11 12
15 11 17 -3 17 -9 0 -16 7 -16 16 0 8 -4 13 -8 10 -5 -3 -16 4 -25 14 -11 13
-12 20 -4 24 7 2 3 5 -8 5 -18 1 -45 39 -45 64 0 6 -7 15 -15 21 -8 6 -16 25
-17 42 -1 20 -7 30 -14 27 -7 -2 -12 2 -11 9 1 33 -4 59 -10 55 -5 -3 -9 6 -9
19 -1 15 2 22 10 18 6 -3 2 2 -8 10 -11 9 -14 16 -8 16 19 0 14 20 -5 21 -11
0 -13 3 -5 6 6 2 12 9 12 14 0 6 -4 8 -8 5 -13 -8 -11 28 2 36 8 5 7 8 -1 8
-7 0 -13 8 -13 18 0 14 2 15 10 2 7 -12 9 -10 7 7 0 12 -4 20 -7 18 -4 -2 -7
2 -7 10 0 8 4 12 9 9 4 -3 8 2 8 11 0 10 -5 14 -12 10 -7 -4 -5 0 4 7 15 13
15 15 0 26 -12 8 -13 11 -3 9 11 -1 15 9 16 40 0 23 4 45 9 50 5 5 6 2 1 -6
-5 -9 -4 -12 3 -7 7 4 12 20 12 37 0 16 5 29 10 29 6 0 9 3 9 8 -3 19 2 33 11
27 6 -3 7 1 4 9 -4 10 1 18 11 22 13 5 14 9 3 15 -10 7 -9 9 5 9 10 0 16 4 13
9 -3 5 1 14 9 21 8 7 15 19 15 26 0 8 7 14 16 14 8 0 13 4 10 8 -3 5 13 23 34
41 22 18 37 37 34 42 -3 5 4 9 16 9 12 0 18 5 15 10 -4 6 5 10 19 10 16 0 26
6 26 15 0 9 9 15 23 15 18 0 19 2 7 10 -11 7 -7 10 18 10 20 0 35 6 38 15 4
11 15 13 38 9 27 -4 29 -3 13 8 -15 11 -12 13 25 15 23 2 45 8 49 14 4 8 8 7
12 -2 4 -10 6 -10 6 -1 1 9 86 12 391 12 305 0 390 3 390 13 7 224 4 297 -10
292 -13 -4 -13 -4 0 7 21 18 19 234 -2 230 -9 -2 -9 1 2 10 16 13 20 84 6 106
-4 7 -4 12 1 12 4 0 8 14 8 30 0 17 -4 30 -8 30 -5 0 -5 5 -1 12 4 7 8 24 8
38 0 14 -4 31 -8 38 -4 7 -4 12 1 12 10 0 9 52 -1 68 -4 7 -3 12 2 12 5 0 6
17 2 40 -4 22 -5 40 -1 40 8 0 6 54 -3 68 -4 7 -4 12 1 12 10 0 9 52 -1 68 -4
7 -4 12 1 12 10 0 9 52 -1 68 -4 7 -4 12 1 12 4 0 8 16 8 35 0 21 -5 35 -12
35 -7 0 -13 6 -13 13 0 8 -4 7 -10 -3 -6 -10 -10 -11 -10 -2 0 6 -11 12 -25
12 -14 0 -25 -5 -25 -12 0 -6 -6 -4 -13 7 -11 14 -16 15 -22 5 -6 -9 -4 -11 6
-5 8 5 11 4 6 0 -9 -11 -47 -14 -47 -4 0 3 -9 9 -20 12 -22 6 -28 -8 -7 -16 6
-3 2 -4 -10 -4 -12 1 -19 5 -17 9 8 13 -11 9 -25 -4 -11 -10 -13 -10 -7 0 5 7
1 12 -9 12 -9 0 -13 -4 -10 -10 3 -5 1 -10 -4 -10 -6 0 -11 5 -11 10 0 15 -47
12 -53 -2 -4 -10 -6 -10 -6 0 -1 15 -31 16 -31 1 0 -6 -7 -3 -16 5 -19 19 -25
20 -18 3 3 -9 -5 -13 -25 -13 -17 0 -28 3 -25 8 8 13 -10 9 -25 -4 -11 -10
-13 -10 -7 0 5 7 1 12 -9 12 -9 0 -13 -4 -10 -10 3 -5 1 -10 -4 -10 -6 0 -11
5 -11 10 0 15 -47 12 -53 -2 -4 -10 -6 -10 -6 0 -1 15 -31 16 -31 1 0 -6 -7
-3 -16 5 -19 19 -25 20 -18 3 3 -8 -4 -13 -18 -14 -18 -2 -20 0 -8 7 13 8 12
10 -2 10 -10 0 -18 -6 -18 -12 0 -9 -3 -9 -9 1 -6 9 -15 11 -27 6 -26 -11 -64
-14 -58 -4 2 4 0 11 -6 14 -6 4 -9 1 -8 -6z"/>
<path d="M5350 7090 c0 -5 5 -10 11 -10 5 0 7 5 4 10 -3 6 -8 10 -11 10 -2 0
-4 -4 -4 -10z"/>
<path d="M6935 5780 c-4 -6 -207 -10 -576 -10 l-569 0 -1 -37 c0 -21 -1 -59
-1 -85 1 -26 -3 -50 -8 -53 -6 -4 -2 -18 8 -33 16 -25 16 -26 -3 -19 -17 6
-18 5 -5 -5 9 -8 15 -30 15 -58 0 -27 -6 -50 -15 -58 -11 -10 -12 -12 -1 -6
11 5 13 3 8 -9 -4 -10 -1 -17 5 -17 7 0 3 -7 -8 -15 -12 -9 -13 -13 -4 -10 11
4 16 -1 16 -15 0 -11 -7 -20 -16 -21 -10 0 -9 -3 5 -9 11 -5 15 -9 8 -9 -7 -1
-10 -8 -6 -18 5 -12 3 -14 -8 -9 -8 4 -6 1 3 -6 15 -13 15 -15 0 -26 -13 -9
-14 -10 -2 -6 11 3 16 -2 16 -16 0 -11 -7 -20 -16 -20 -11 0 -12 -2 -2 -8 7
-5 11 -24 9 -50 -2 -24 1 -42 7 -42 5 0 1 -7 -10 -15 -12 -9 -13 -13 -4 -10
11 4 16 -1 16 -15 0 -11 -7 -20 -16 -20 -10 0 -11 -3 -3 -8 14 -9 15 -71 2
-88 -6 -7 -4 -16 5 -23 16 -14 9 -54 -8 -45 -6 3 -3 -1 6 -8 15 -13 15 -15 0
-26 -13 -9 -14 -10 -2 -6 11 3 16 -2 16 -16 0 -11 -7 -20 -16 -20 -10 0 -11
-3 -3 -8 14 -9 15 -71 2 -88 -6 -7 -4 -16 5 -23 16 -14 9 -54 -8 -45 -6 3 -2
-2 8 -10 11 -9 15 -16 9 -16 -6 0 -9 -9 -5 -22 4 -16 2 -19 -9 -13 -8 5 -5 -1
5 -13 11 -12 14 -22 8 -22 -7 0 -9 -7 -5 -17 5 -12 3 -14 -8 -9 -8 4 -6 1 4
-7 15 -13 15 -15 2 -20 -8 -4 -12 -12 -10 -19 4 -10 37 -12 136 -10 95 2 136
-1 147 -10 12 -10 14 -10 8 -1 -10 17 212 16 233 -1 11 -8 13 -8 8 0 -10 16
212 17 232 1 11 -9 13 -9 8 -1 -10 16 212 17 232 1 11 -9 13 -9 8 0 -5 8 30
11 135 11 l143 -1 1 529 c2 385 -1 533 -10 543 -8 11 -8 13 0 8 9 -5 12 25 12
108 l0 115 -35 0 c-24 0 -32 4 -27 13 6 10 4 10 -7 0 -16 -15 -63 -18 -54 -3
3 6 4 10 1 10 -3 0 -8 -4 -11 -10z"/>
</g>
</svg>
