<?xml version="1.0" standalone="no"?>
<!DOCTYPE svg PUBLIC "-//W3C//DTD SVG 20010904//EN"
 "http://www.w3.org/TR/2001/REC-SVG-20010904/DTD/svg10.dtd">
<svg version="1.0" xmlns="http://www.w3.org/2000/svg"
 width="700.000000pt" height="700.000000pt" viewBox="0 0 700.000000 700.000000"
 preserveAspectRatio="xMidYMid meet">
<metadata>
Created by potrace 1.14, written by Peter Selinger 2001-2017
</metadata>
<g transform="translate(0.000000,700.000000) scale(0.100000,-0.100000)"
fill="#000000" stroke="none">
<path d="M3645 4850 c-4 -6 -11 -8 -16 -5 -5 4 -9 2 -9 -3 0 -10 -36 -9 -46 1
-4 4 -13 2 -20 -4 -8 -7 -14 -7 -19 1 -4 7 -12 7 -25 0 -13 -7 -21 -7 -25 0
-5 8 -11 7 -21 -1 -8 -6 -14 -7 -14 -2 0 5 -7 10 -15 10 -8 0 -15 -4 -15 -9 0
-5 -10 -4 -21 3 -12 6 -19 7 -15 1 3 -5 -6 -10 -22 -10 -34 0 -90 -9 -101 -17
-5 -3 -12 1 -14 7 -4 10 -6 10 -6 0 -1 -7 -5 -10 -11 -7 -5 3 -10 2 -10 -3 0
-5 -10 -8 -22 -7 -29 2 -49 -5 -43 -15 2 -4 -8 -6 -23 -4 -14 1 -29 -1 -32 -7
-4 -5 -18 -10 -33 -11 -15 -1 -27 -6 -27 -11 0 -5 -6 -7 -12 -5 -7 3 -19 -1
-26 -9 -8 -7 -18 -11 -23 -8 -5 4 -9 1 -9 -5 0 -7 -6 -10 -12 -8 -7 3 -22 -4
-32 -14 -11 -10 -26 -16 -32 -14 -7 3 -15 -2 -18 -11 -4 -8 -13 -13 -21 -9 -9
3 -15 0 -15 -9 0 -9 -6 -12 -17 -8 -10 4 -14 2 -10 -4 6 -10 -27 -27 -46 -24
-5 1 -6 -3 -3 -8 4 -5 -3 -12 -14 -16 -11 -3 -20 -11 -20 -16 0 -5 -5 -9 -11
-9 -7 0 -20 -10 -30 -22 -11 -11 -19 -17 -19 -13 0 4 -11 -3 -24 -16 -13 -13
-35 -33 -48 -44 -14 -11 -24 -23 -21 -27 2 -5 -3 -8 -11 -8 -8 0 -18 -9 -21
-20 -4 -11 -9 -19 -13 -17 -4 2 -15 -4 -24 -15 -10 -10 -16 -18 -13 -18 5 0
-1 -7 -52 -64 -12 -13 -19 -27 -16 -30 4 -3 1 -6 -6 -6 -7 0 -9 -4 -6 -10 3
-5 -1 -10 -10 -10 -9 0 -13 -5 -10 -10 3 -6 -1 -13 -10 -16 -9 -4 -14 -13 -11
-20 3 -8 -1 -14 -9 -14 -9 0 -12 -6 -8 -17 5 -12 3 -14 -7 -8 -10 6 -12 4 -7
-8 3 -9 0 -18 -9 -21 -9 -3 -12 -10 -9 -16 3 -5 1 -10 -5 -10 -6 0 -9 -4 -6
-9 4 -5 1 -11 -4 -13 -6 -2 -12 -10 -14 -18 -1 -8 -7 -25 -14 -36 -6 -12 -8
-24 -5 -28 3 -3 1 -6 -5 -6 -7 0 -12 -6 -12 -12 0 -7 -7 -26 -15 -41 -8 -15
-9 -25 -4 -21 6 4 3 -5 -6 -20 -10 -14 -14 -26 -9 -26 4 0 3 -5 -3 -11 -6 -6
-9 -18 -6 -25 3 -8 1 -14 -4 -14 -5 0 -9 -8 -10 -17 -1 -19 -10 -58 -13 -58
-1 0 -3 -18 -5 -40 -1 -22 -4 -40 -5 -40 -10 0 -15 -268 -6 -284 4 -6 2 -11
-4 -11 -7 0 -8 -5 -3 -12 4 -7 8 -22 8 -33 0 -11 4 -26 8 -32 5 -8 3 -13 -5
-13 -9 0 -9 -3 2 -10 8 -5 11 -10 7 -10 -4 0 -3 -9 3 -20 8 -15 8 -20 -2 -20
-10 0 -10 -3 1 -9 8 -5 11 -16 8 -25 -4 -9 -2 -16 3 -16 6 0 10 -13 10 -30 0
-16 5 -30 10 -30 6 0 9 -3 9 -7 -4 -22 2 -54 9 -50 4 3 8 -9 9 -26 2 -18 7
-33 13 -35 5 -2 10 -8 10 -13 0 -6 -6 -7 -12 -4 -7 4 -4 -1 7 -10 11 -9 20
-21 20 -28 1 -7 6 -22 13 -34 7 -13 9 -23 5 -23 -4 0 2 -7 13 -16 10 -8 12
-13 4 -9 -9 4 -6 -2 5 -12 11 -10 21 -25 23 -33 2 -8 8 -17 13 -18 5 -2 7 -8
3 -13 -3 -5 -1 -9 5 -9 10 0 27 -39 23 -53 -1 -5 2 -6 8 -2 5 3 10 1 10 -5 0
-6 4 -8 10 -5 6 3 7 -1 4 -9 -4 -9 1 -18 10 -22 9 -3 16 -13 16 -21 0 -8 5
-11 10 -8 6 3 10 -1 10 -9 0 -9 5 -16 10 -16 6 0 10 -7 10 -16 0 -8 5 -12 10
-9 6 3 10 0 10 -7 0 -8 9 -20 19 -28 11 -7 18 -17 15 -22 -3 -4 3 -5 13 -1 10
3 15 3 11 -1 -6 -8 36 -54 67 -71 10 -6 17 -15 16 -20 -1 -6 8 -13 21 -16 13
-3 22 -11 20 -18 -1 -7 2 -10 8 -6 5 3 10 1 10 -4 0 -6 7 -11 15 -11 8 0 15
-4 15 -10 0 -5 7 -10 15 -10 8 0 15 -4 15 -10 0 -5 7 -10 15 -10 8 0 15 -4 15
-10 0 -5 7 -10 15 -10 8 0 15 -5 15 -11 0 -5 5 -7 10 -4 6 3 10 1 10 -5 0 -6
5 -8 10 -5 6 3 10 2 10 -2 0 -5 16 -15 35 -22 19 -7 33 -16 31 -20 -3 -4 1 -8
9 -9 8 -1 22 -3 30 -4 8 -1 15 -4 15 -8 0 -4 7 -7 15 -8 8 -1 22 -3 30 -4 8
-1 15 -5 15 -10 0 -4 9 -8 21 -8 11 0 18 -3 16 -8 -3 -4 9 -8 26 -9 50 -4 57
-6 57 -16 0 -5 7 -7 15 -4 8 4 17 2 20 -3 4 -6 11 -10 16 -10 6 0 7 4 4 10 -3
6 1 7 9 4 9 -3 16 -10 16 -14 0 -10 20 -8 38 4 7 4 12 4 11 -1 -3 -20 2 -27
11 -13 5 8 10 10 10 4 0 -7 13 -10 30 -8 19 2 30 -1 30 -9 0 -7 3 -8 8 -2 9
13 32 17 32 6 0 -11 19 -9 39 3 10 6 12 5 7 -2 -4 -7 -3 -12 3 -12 5 0 13 5
16 10 4 7 12 7 18 2 15 -10 27 -10 46 2 9 6 12 5 8 -1 -8 -13 52 -11 73 2 8 5
11 4 7 -2 -8 -13 52 -11 73 2 8 5 11 4 7 -2 -8 -13 52 -11 73 2 8 5 11 4 7 -2
-8 -13 52 -12 72 1 8 5 16 4 20 -2 7 -12 29 -11 50 2 10 7 12 6 6 -4 -6 -9 -4
-11 4 -6 7 5 10 14 8 20 -3 7 -2 19 3 26 4 7 4 25 0 40 -5 18 -4 32 3 39 8 8
8 11 -1 11 -8 0 -9 7 -2 25 6 16 6 26 -1 31 -8 4 -7 9 2 15 8 5 9 9 3 9 -11 0
-11 66 0 77 3 3 1 12 -5 19 -6 8 -6 14 0 18 6 4 6 18 1 34 -4 16 -4 36 2 45 6
11 5 17 -2 17 -8 0 -8 6 0 20 6 11 7 20 2 20 -11 0 -10 40 1 58 5 6 4 12 -2
12 -10 0 -10 18 2 37 4 6 2 15 -4 19 -8 4 -7 9 2 15 9 6 10 9 2 9 -12 0 -12
17 0 37 4 6 3 15 -3 18 -8 5 -7 11 1 21 7 8 7 14 1 14 -10 0 -9 50 2 68 3 6 2
14 -4 17 -8 5 -8 11 -1 19 6 7 8 15 6 18 -15 14 -12 48 6 64 15 13 19 14 19 3
0 -8 3 -10 8 -4 8 12 132 14 132 2 0 -5 5 -5 12 -1 18 11 68 10 68 -1 0 -7 3
-7 8 0 10 14 41 12 51 -4 7 -10 9 -11 13 0 5 14 48 20 48 6 0 -5 6 -5 13 2 10
8 17 7 27 -2 10 -9 11 -9 6 1 -4 6 -2 12 3 12 6 0 11 -6 11 -12 0 -9 4 -8 10
2 8 12 10 12 10 1 0 -10 3 -11 13 -2 10 8 17 7 27 -2 10 -9 11 -9 6 1 -4 6 -2
12 3 12 6 0 11 -6 11 -12 0 -10 2 -10 8 -1 5 8 13 9 22 3 9 -5 19 -5 26 1 8 7
14 6 19 -1 4 -7 12 -7 26 0 13 8 19 7 19 0 0 -7 6 -8 17 -2 9 5 29 6 44 2 15
-5 30 -6 32 -3 13 12 58 9 66 -4 7 -13 9 -13 14 1 4 9 11 16 17 16 6 0 9 -3 7
-7 -3 -5 5 -8 17 -8 13 0 23 6 24 13 4 37 3 144 -1 148 -3 3 -1 19 3 35 5 18
5 29 -1 29 -6 0 -6 6 0 18 5 10 6 24 1 31 -4 8 -4 27 0 42 5 18 5 29 -1 29 -6
0 -6 6 0 18 6 11 6 24 0 35 -6 9 -6 17 -1 17 8 0 8 58 -1 66 -3 3 -1 19 3 35
5 18 5 29 -1 29 -6 0 -6 7 0 18 7 13 6 23 -1 30 -7 7 -8 12 -2 12 13 0 12 53
-1 62 -6 5 -4 8 5 8 13 0 13 1 0 10 -8 5 -10 10 -5 10 11 0 11 92 0 109 -3 6
-2 11 3 11 5 0 9 7 9 15 0 8 -5 15 -11 15 -6 0 -4 5 4 10 8 5 10 10 3 10 -6 0
-9 8 -6 19 4 17 -8 18 -287 17 -161 -1 -294 3 -297 7 -3 4 -10 4 -16 -2 -20
-16 -23 -16 -40 -2 -10 7 -17 9 -17 4 0 -5 -48 -8 -108 -7 l-109 2 0 -29 c0
-16 4 -29 9 -29 5 0 6 -5 3 -10 -4 -6 -12 -8 -18 -4 -7 3 -3 -2 7 -10 11 -9
15 -16 9 -16 -12 0 -12 -54 -1 -66 4 -3 3 -15 -3 -25 -7 -14 -6 -19 3 -19 8 0
9 -3 3 -8 -14 -10 -15 -75 -1 -84 7 -5 7 -8 1 -8 -6 0 -11 -9 -11 -20 0 -11 4
-20 9 -20 6 0 6 -5 0 -12 -5 -7 -9 -20 -8 -28 0 -8 -4 -18 -10 -22 -6 -5 -2
-8 8 -8 12 0 15 -4 11 -12 -12 -19 -11 -128 1 -128 7 0 7 -3 0 -8 -6 -4 -10
-29 -10 -57 0 -27 4 -53 10 -57 7 -5 7 -8 0 -8 -9 0 -13 -115 -5 -145 5 -22 0
-36 -12 -29 -7 4 -4 -3 7 -16 15 -18 16 -22 4 -18 -9 4 -22 3 -29 -2 -7 -4
-26 -4 -41 0 -20 6 -29 5 -29 -3 0 -8 -3 -8 -8 -2 -9 13 -82 13 -82 1 0 -6 -5
-5 -12 2 -7 7 -17 8 -30 1 -11 -6 -18 -6 -18 0 0 6 -11 6 -30 1 -19 -5 -28 -5
-25 1 4 5 1 9 -4 9 -6 0 -11 -4 -11 -9 0 -6 -12 -6 -29 -1 -21 6 -31 5 -35 -3
-3 -9 -5 -9 -5 0 -1 8 -10 9 -31 3 -17 -5 -30 -5 -30 0 0 5 -7 7 -16 3 -9 -3
-20 0 -25 8 -6 10 -9 10 -9 2 0 -7 -7 -13 -16 -13 -8 0 -13 3 -11 8 3 4 -9 8
-26 9 -50 4 -57 6 -57 15 0 4 -9 8 -20 8 -11 0 -20 4 -20 9 0 5 -7 12 -16 15
-10 4 -13 2 -8 -7 9 -15 -48 33 -59 51 -4 6 -14 12 -22 12 -8 0 -17 5 -21 12
-5 7 -2 9 7 4 8 -4 2 3 -13 16 -16 13 -28 28 -28 32 0 5 -8 16 -17 25 -18 16
-25 33 -26 59 0 6 -4 12 -9 12 -4 0 -8 9 -8 20 0 11 -4 20 -9 20 -5 0 -9 12
-10 28 0 15 0 37 -1 50 0 13 -4 21 -8 18 -5 -3 -9 1 -9 9 0 8 4 15 8 15 9 0 6
20 -5 39 -6 10 -5 12 2 7 11 -6 17 27 15 82 -1 6 3 12 9 12 5 0 7 4 3 9 -3 5
0 15 7 23 7 7 14 20 16 28 2 8 11 24 20 34 9 11 11 16 4 12 -11 -7 -11 -4 -1
12 7 12 17 18 21 16 4 -3 8 0 8 6 0 14 60 76 71 73 5 -2 9 1 9 6 0 11 50 44
68 44 7 0 11 6 8 13 -3 8 0 11 8 8 6 -2 29 2 49 11 20 8 37 12 37 8 0 -5 5 -1
10 7 7 11 10 11 10 2 0 -8 5 -10 12 -6 20 12 112 12 127 0 11 -8 13 -8 8 0 -5
9 19 11 86 10 56 -1 95 2 99 8 5 7 8 7 8 -1 0 -7 7 -10 15 -7 8 4 23 0 32 -7
14 -12 16 -12 8 0 -6 11 -1 12 30 7 24 -5 35 -4 31 3 -4 6 4 7 22 2 19 -6 34
-4 47 5 10 8 14 14 7 14 -8 0 -9 7 -2 24 5 15 5 27 -3 35 -8 8 -7 11 3 11 9 0
8 5 -6 16 -10 8 -14 13 -8 10 14 -7 26 32 13 40 -6 3 -5 11 2 20 6 8 7 14 2
14 -11 0 -11 45 0 56 3 4 2 14 -3 23 -5 10 -5 23 0 31 4 7 5 23 0 35 -4 12 -4
29 1 38 7 11 6 17 0 17 -7 0 -7 8 -1 25 5 14 5 27 1 30 -10 6 -9 24 2 43 5 6
4 12 -1 12 -9 0 -5 69 4 79 2 2 -1 10 -7 17 -6 8 -6 14 0 18 6 4 6 18 1 34 -4
16 -4 36 2 45 6 11 5 17 -1 17 -7 0 -7 8 -1 25 5 14 5 27 1 30 -10 6 -9 24 2
43 5 6 4 12 -1 12 -13 0 -10 33 3 42 6 5 5 8 -2 8 -7 0 -13 7 -13 15 0 17 -16
20 -25 5 -5 -8 -11 -8 -20 0 -10 8 -14 7 -18 -2 -4 -10 -6 -10 -6 1 -1 11 -4
11 -18 0 -14 -12 -15 -12 -9 -1 7 11 4 12 -13 3 -12 -7 -21 -8 -21 -2 0 5 -9
9 -20 8 -11 -1 -20 -5 -20 -10 0 -5 -6 -4 -14 2 -11 9 -15 9 -19 -1 -4 -10 -6
-10 -6 1 -1 10 -4 11 -15 2 -10 -8 -16 -9 -21 -1 -4 7 -12 7 -26 0 -18 -10
-23 -6 -20 13 2 10 -7 9 -14 -3z"/>
</g>
</svg>
